<svg width="32" height="32" viewBox="0 0 32 32" fill="none" xmlns="http://www.w3.org/2000/svg">
<path d="M31.5739 26.7207L18.853 4.63149C18.5608 4.13471 18.1439 3.72285 17.6437 3.43669C17.1434 3.15053 16.5771 3 16.0007 3C15.4244 3 14.8581 3.15053 14.3578 3.43669C13.8575 3.72285 13.4407 4.13471 13.1485 4.63149L0.427567 26.7207C0.147561 27.2001 0 27.7452 0 28.3003C0 28.8554 0.147561 29.4006 0.427567 29.8799C0.715834 30.3802 1.13214 30.7946 1.63369 31.0807C2.13523 31.3667 2.70392 31.514 3.28126 31.5074H28.7202C29.297 31.5135 29.8651 31.366 30.3661 31.0799C30.8671 30.7939 31.283 30.3797 31.571 29.8799C31.8514 29.4008 31.9995 28.8558 32 28.3007C32.0005 27.7456 31.8534 27.2003 31.5739 26.7207ZM30.0598 29.0057C29.9238 29.2395 29.7281 29.4327 29.4926 29.5657C29.2572 29.6986 28.9905 29.7664 28.7202 29.7621H3.28126C3.01091 29.7664 2.74429 29.6986 2.50884 29.5657C2.27339 29.4327 2.07762 29.2395 1.94168 29.0057C1.81453 28.7919 1.74742 28.5477 1.74742 28.2989C1.74742 28.05 1.81453 27.8058 1.94168 27.592L14.6611 5.50273C14.8002 5.27173 14.9966 5.08062 15.2313 4.94795C15.4661 4.81528 15.7311 4.74556 16.0007 4.74556C16.2703 4.74556 16.5354 4.81528 16.7701 4.94795C17.0048 5.08062 17.2013 5.27173 17.3403 5.50273L30.0612 27.592C30.1882 27.806 30.255 28.0502 30.2548 28.2991C30.2545 28.5479 30.1871 28.792 30.0598 29.0057ZM15.128 20.1625V14.3445C15.128 14.1131 15.22 13.8911 15.3836 13.7275C15.5473 13.5638 15.7693 13.4718 16.0007 13.4718C16.2322 13.4718 16.4541 13.5638 16.6178 13.7275C16.7815 13.8911 16.8734 14.1131 16.8734 14.3445V20.1625C16.8734 20.3939 16.7815 20.6159 16.6178 20.7796C16.4541 20.9432 16.2322 21.0352 16.0007 21.0352C15.7693 21.0352 15.5473 20.9432 15.3836 20.7796C15.22 20.6159 15.128 20.3939 15.128 20.1625ZM17.4552 25.3986C17.4552 25.6863 17.3699 25.9675 17.2101 26.2067C17.0503 26.4459 16.8231 26.6323 16.5573 26.7424C16.2916 26.8525 15.9991 26.8813 15.717 26.8251C15.4348 26.769 15.1757 26.6305 14.9722 26.4271C14.7688 26.2237 14.6303 25.9645 14.5742 25.6824C14.5181 25.4002 14.5469 25.1078 14.657 24.842C14.767 24.5762 14.9535 24.3491 15.1927 24.1893C15.4318 24.0294 15.7131 23.9441 16.0007 23.9441C16.3865 23.9441 16.7564 24.0974 17.0292 24.3701C17.302 24.6429 17.4552 25.0129 17.4552 25.3986Z" fill="#976767"/>
</svg>