<svg width="32" height="32" viewBox="0 0 32 32" fill="none" xmlns="http://www.w3.org/2000/svg">
<path d="M15.3333 22H16.6667V14.6667H15.3333V22ZM16 12.7693C16.2329 12.7693 16.4276 12.6907 16.584 12.5333C16.7413 12.376 16.82 12.1813 16.82 11.9493C16.82 11.7164 16.7413 11.5213 16.584 11.364C16.4276 11.2067 16.2329 11.128 16 11.128C15.7671 11.128 15.5724 11.2067 15.416 11.364C15.2587 11.5213 15.18 11.7164 15.18 11.9493C15.18 12.1813 15.2587 12.376 15.416 12.5333C15.5724 12.6907 15.7671 12.7693 16 12.7693ZM16.004 28C14.3453 28 12.7853 27.6853 11.324 27.056C9.86356 26.4258 8.59289 25.5707 7.512 24.4907C6.43111 23.4116 5.57556 22.1422 4.94533 20.6827C4.31511 19.2231 4 17.6636 4 16.004C4 14.3453 4.31467 12.7853 4.944 11.324C5.57422 9.86356 6.42933 8.59289 7.50933 7.512C8.58844 6.43111 9.85778 5.57556 11.3173 4.94533C12.7769 4.31511 14.3364 4 15.996 4C17.6547 4 19.2147 4.31467 20.676 4.944C22.1364 5.57422 23.4071 6.42933 24.488 7.50933C25.5689 8.58844 26.4244 9.85778 27.0547 11.3173C27.6849 12.7769 28 14.3364 28 15.996C28 17.6547 27.6853 19.2147 27.056 20.676C26.4258 22.1364 25.5707 23.4071 24.4907 24.488C23.4116 25.5689 22.1422 26.4244 20.6827 27.0547C19.2231 27.6849 17.6636 28 16.004 28ZM16 26.6667C18.9778 26.6667 21.5 25.6333 23.5667 23.5667C25.6333 21.5 26.6667 18.9778 26.6667 16C26.6667 13.0222 25.6333 10.5 23.5667 8.43333C21.5 6.36667 18.9778 5.33333 16 5.33333C13.0222 5.33333 10.5 6.36667 8.43333 8.43333C6.36667 10.5 5.33333 13.0222 5.33333 16C5.33333 18.9778 6.36667 21.5 8.43333 23.5667C10.5 25.6333 13.0222 26.6667 16 26.6667Z" fill="#222222"/>
</svg>
