<svg width="32" height="32" viewBox="0 0 32 32" fill="none" xmlns="http://www.w3.org/2000/svg">
<g clip-path="url(#clip0_539_26045)">
<path d="M15.1111 24H16.8889V14.2222H15.1111V24ZM16 11.6924C16.3105 11.6924 16.5701 11.5876 16.7787 11.3778C16.9884 11.168 17.0933 10.9084 17.0933 10.5991C17.0933 10.2886 16.9884 10.0284 16.7787 9.81867C16.5701 9.60889 16.3105 9.504 16 9.504C15.6895 9.504 15.4299 9.60889 15.2213 9.81867C15.0116 10.0284 14.9067 10.2886 14.9067 10.5991C14.9067 10.9084 15.0116 11.168 15.2213 11.3778C15.4299 11.5876 15.6895 11.6924 16 11.6924ZM16.0053 32C13.7938 32 11.7138 31.5804 9.76533 30.7413C7.81807 29.901 6.12385 28.7609 4.68267 27.3209C3.24148 25.8821 2.10074 24.1896 1.26044 22.2436C0.420148 20.2975 0 18.2181 0 16.0053C0 13.7938 0.419555 11.7138 1.25867 9.76533C2.09896 7.81807 3.23911 6.12385 4.67911 4.68267C6.11793 3.24148 7.81037 2.10074 9.75644 1.26044C11.7025 0.420148 13.7819 0 15.9947 0C18.2062 0 20.2862 0.419555 22.2347 1.25867C24.1819 2.09896 25.8761 3.23911 27.3173 4.67911C28.7585 6.11793 29.8993 7.81037 30.7396 9.75644C31.5799 11.7025 32 13.7819 32 15.9947C32 18.2062 31.5804 20.2862 30.7413 22.2347C29.901 24.1819 28.7609 25.8761 27.3209 27.3173C25.8821 28.7585 24.1896 29.8993 22.2436 30.7396C20.2975 31.5799 18.2181 32 16.0053 32ZM16 30.2222C19.9704 30.2222 23.3333 28.8444 26.0889 26.0889C28.8444 23.3333 30.2222 19.9704 30.2222 16C30.2222 12.0296 28.8444 8.66667 26.0889 5.91111C23.3333 3.15556 19.9704 1.77778 16 1.77778C12.0296 1.77778 8.66667 3.15556 5.91111 5.91111C3.15556 8.66667 1.77778 12.0296 1.77778 16C1.77778 19.9704 3.15556 23.3333 5.91111 26.0889C8.66667 28.8444 12.0296 30.2222 16 30.2222Z" fill="#9E9A79"/>
</g>
<defs>
<clipPath id="clip0_539_26045">
<rect width="32" height="32" fill="white"/>
</clipPath>
</defs>
</svg>